<?xml version="1.0" encoding="utf-8"?>
<!-- Generator: Adobe Illustrator 16.0.0, SVG Export Plug-In . SVG Version: 6.00 Build 0)  -->
<!DOCTYPE svg PUBLIC "-//W3C//DTD SVG 1.1//EN" "http://www.w3.org/Graphics/SVG/1.1/DTD/svg11.dtd">
<svg version="1.1" id="Layer_1" xmlns="http://www.w3.org/2000/svg" xmlns:xlink="http://www.w3.org/1999/xlink" x="0px" y="0px"
	 width="50px" height="50px" viewBox="0 0 50 50" enable-background="new 0 0 50 50" xml:space="preserve">
<g>
	<path d="M29.189,32.061c0-1.903,1.049-3.55,2.588-4.441c-0.963-0.307-1.999-0.551-3.09-0.722c2.342-1.299,3.929-3.794,3.929-6.662
		c0-4.207-3.41-7.617-7.617-7.617c-4.207,0-7.617,3.41-7.617,7.617c0,2.868,1.587,5.363,3.929,6.662
		c-5.754,0.898-9.977,3.836-9.977,7.329h18.349C29.375,33.565,29.189,32.837,29.189,32.061z"/>
</g>
<path d="M34.338,28.043c-2.218,0-4.017,1.797-4.017,4.018c0,2.218,1.799,4.016,4.017,4.016s4.017-1.798,4.017-4.016
	C38.354,29.84,36.556,28.043,34.338,28.043z M36.961,32.773h-1.909v1.911h-1.427v-1.911h-1.91v-1.428h1.91v-1.911h1.427v1.911h1.909
	V32.773z"/>
</svg>
